<?xml version="1.0" encoding="utf-8"?>
<!-- Generator: Adobe Illustrator 27.5.0, SVG Export Plug-In . SVG Version: 6.00 Build 0)  -->
<svg version="1.1" xmlns="http://www.w3.org/2000/svg" xmlns:xlink="http://www.w3.org/1999/xlink" x="0px" y="0px"
	 viewBox="0 0 3710 3710" style="enable-background:new 0 0 3710 3710;" xml:space="preserve">
<g id="Background">
	<g>
		<g>
			<rect style="fill:#FFFFFF;" width="3710" height="3710"/>
		</g>
	</g>
</g>
<g id="Illustration">
	<g>
		<linearGradient id="SVGID_1_" gradientUnits="userSpaceOnUse" x1="3511.1863" y1="3702.5056" x2="1536.5698" y2="1600.4951">
			<stop  offset="0" style="stop-color:#DAE3FE"/>
			<stop  offset="1" style="stop-color:#E9EFFD"/>
		</linearGradient>
		<path style="fill:url(#SVGID_1_);" d="M2918.309,2859.188c-72.895,75.137-138.118,119.306-188.056,152.65
			c-487.031,325.195-1043.76,231.466-1215.887,199.43c-277.706-51.687-512.128-88.15-713.538-270.116
			c-457.665-413.482-435.405-1276.037-85.693-1810.353c41.465-63.354,390.648-580.951,948.583-653.885
			c13.646-1.784,23.828-2.8,32.746-3.744c86.311-9.138,621.165-57.369,1057.284,308.012
			c62.429,52.302,162.894,146.643,256.058,290.527C3350.455,1597.814,3351.534,2412.636,2918.309,2859.188z"/>
		<g>
			<path style="fill:#BDD0FB;" d="M563.982,625.982c-4.243-14.793-25.123-15.237-30.216-0.714
				c-51.722,147.468-146.784,557.967,172.003,1023.214c399.965,583.722,388.383,878.622,298.913,1101.352
				c0,0,188.003-180.617,207.649-483.96C1260.564,1521.097,639.429,889.008,563.982,625.982z"/>
			<path style="fill:#FFFFFF;" d="M588.272,860.626c23.429,75.952,48.342,151.402,75.979,225.833
				c27.241,74.563,56.73,148.267,88.474,220.945c32.02,72.55,65.396,144.489,101.779,214.903
				c36.064,70.574,75.119,139.52,114.573,208.605c39.045,69.266,78.773,138.823,111.502,212.658
				c32.727,73.651,57.188,152.392,66.537,233.268c2.311,20.167,4.262,40.453,4.999,60.653c1.112,20.195,1.33,40.444,1.185,60.689
				c-0.491,40.498-3.671,81.032-9.844,121.146c-12.552,80.208-37.309,158.443-71.412,231.493
				c-3.59,7.688-12.732,11.011-20.421,7.422c-7.55-3.524-10.89-12.404-7.609-20.003l0.023-0.054
				c7.792-18.002,15.368-36.072,22.113-54.416c3.52-9.121,6.627-18.378,9.908-27.573c2.928-9.307,6.219-18.505,8.857-27.894
				c11.182-37.364,19.726-75.469,25.411-114.016c11.736-76.955,12.031-156.062,3.237-233.339
				c-4.835-38.601-12.506-76.779-23.089-114.234c-10.612-37.451-24.118-74.144-39.728-110.094
				c-31.234-71.943-69.987-141.114-108.532-210.656c-38.464-69.608-76.637-139.821-111.862-211.496
				c-17.707-35.785-34.769-71.884-51.176-108.271c-8.308-18.145-16.263-36.448-24.249-54.734
				c-7.811-18.362-15.52-36.766-23.077-55.227c-30.093-73.908-57.916-148.698-83.338-224.261
				c-25.059-75.685-48.102-152.011-68.165-229.095c-0.573-2.204,0.747-4.454,2.951-5.027
				C585.435,857.296,587.624,858.536,588.272,860.626z"/>
		</g>
		<g>
			<g>
				<path style="fill:#91B3FA;" d="M1201.006,2309.44c19.679,20.417,53.813,14.1,65.223-11.859
					c62.959-143.236,204.343-564.314-42.318-1044.834c-208.294-405.778-282.679-645.602-308.903-756.813
					c-5.546-23.517-37.889-26.285-47.394-4.072C762.75,736.94,487.939,1569.644,1201.006,2309.44z"/>
				<path style="fill:#FFFFFF;" d="M1236.163,2294.007c0.693,0.116,1.406,0.167,2.135,0.147c6.111-0.162,10.935-5.248,10.774-11.36
					c-0.184-6.929-21.423-699.489-285.555-1276.779c-2.544-5.554-9.111-8.001-14.676-5.462c-5.56,2.546-8.004,9.114-5.462,14.676
					c262.211,573.087,283.375,1261.269,283.559,1268.152C1227.08,2288.765,1231.042,2293.148,1236.163,2294.007z"/>
			</g>
		</g>
		<g>
			
				<linearGradient id="SVGID_00000055679399282159987170000018007603254744015769_" gradientUnits="userSpaceOnUse" x1="2904.7085" y1="967.1215" x2="1114.0608" y2="1927.1256">
				<stop  offset="0" style="stop-color:#4F52FF"/>
				<stop  offset="1" style="stop-color:#4042E2"/>
			</linearGradient>
			<path style="fill:url(#SVGID_00000055679399282159987170000018007603254744015769_);" d="M630.036,2722.461
				c38.044-383.746,133.248-1336.869,154.031-1476.181c26.122-175.095,240.682-136.451,240.682-136.451l45.945,1771.88H771.534
				c-40.205,0-78.547-17.333-105.494-47.72C639.094,2803.6,625.997,2763.2,630.036,2722.461z"/>
			
				<linearGradient id="SVGID_00000031179573319499847860000012614643320805511296_" gradientUnits="userSpaceOnUse" x1="1132.178" y1="2378.8464" x2="3658.1477" y2="1330.3286">
				<stop  offset="0" style="stop-color:#4F52FF"/>
				<stop  offset="1" style="stop-color:#4042E2"/>
			</linearGradient>
			<path style="fill:url(#SVGID_00000031179573319499847860000012614643320805511296_);" d="M3050.344,2926.374
				c93.419-1.982,167.542-79.32,165.561-172.739l-30.512-1438.466c-1.683-79.358-65.262-143.476-144.604-145.832l-2087.759-61.94
				c-62.089-1.843-113.367,48.089-113.178,110.204l5.008,1649.299c0.177,58.365,48.196,105.233,106.55,103.995L3050.344,2926.374z"
				/>
			<g>
				<path style="fill:#BDD0FB;" d="M3184.894,2805.621c29.892-0.46,52.467-27.234,47.823-56.77
					c-30.806-195.87-127.522-869.611-96.497-1429.01c1.414-25.51-18.353-47.203-43.889-48.017l-2097.163-66.899
					c-28.755-0.919-52.852,21.536-53.943,50.287c-8.917,235.181-42.135,1203.67,1.324,1547.942
					c2.644,20.954,20.663,36.519,41.781,36.195L3184.894,2805.621z"/>
				<path style="fill:#91B3FA;" d="M3131.907,2783.594c28.767-0.439,50.494-26.208,46.023-54.629
					c-29.644-188.496-122.72-836.867-92.864-1375.2c1.362-24.55-17.659-45.427-42.234-46.211l-2018.194-64.38
					c-27.673-0.881-50.863,20.726-51.911,48.394c-8.583,226.327-40.549,1158.347,1.274,1489.655
					c2.545,20.163,19.886,35.142,40.206,34.831L3131.907,2783.594z"/>
			</g>
			<path style="opacity:0.72;fill:#FFFFFF;" d="M1891.476,1649.569l3.082,145.349c0.472,22.186-17.318,40.459-39.506,40.584
				l-149.087,0.842c-21.706,0.123-39.495-17.195-39.956-38.898l-3.242-152.807c-0.486-22.968,18.542-41.564,41.494-40.545
				l149.243,6.616C1874.42,1611.637,1891.031,1628.635,1891.476,1649.569z"/>
			<path style="opacity:0.72;fill:#FFFFFF;" d="M2412.714,1834.278l-149.085,0.844c-21.707,0.121-39.496-17.197-39.957-38.9
				l-2.757-129.967c-0.484-22.835,18.333-41.379,41.16-40.558l149.216,5.359c21.053,0.755,37.859,17.808,38.305,38.872
				l2.625,123.766C2452.692,1815.88,2434.905,1834.153,2412.714,1834.278z"/>
			<path style="opacity:0.72;fill:#FFFFFF;" d="M2282.092,2481.708l141.815-1.374c23.757-0.232,43.276,18.693,43.781,42.446
				l2.817,132.806c0.499,23.59-17.95,43.253-41.526,44.25l-141.718,6c-24.289,1.028-44.677-18.106-45.193-42.412l-2.917-137.429
				C2238.641,2501.855,2257.944,2481.943,2282.092,2481.708z"/>
			<path style="opacity:0.72;fill:#FFFFFF;" d="M2520.68,2652.391l-2.755-129.85c-0.504-23.728,18.471-43.297,42.202-43.528
				l143.304-1.389c23.349-0.226,42.534,18.375,43.03,41.719l2.654,125.179c0.492,23.185-17.644,42.51-40.814,43.492l-143.204,6.062
				C2541.227,2695.086,2521.186,2676.279,2520.68,2652.391z"/>
			<path style="opacity:0.72;fill:#FFFFFF;" d="M2508.245,2066.171l-2.26-106.593c-0.546-25.741,20.197-46.89,45.942-46.844
				l136.846,0.247c24.922,0.045,45.25,19.981,45.778,44.899l2.162,101.869c0.534,25.122-19.247,45.997-44.361,46.819l-136.745,4.475
				C2530.08,2111.88,2508.786,2091.704,2508.245,2066.171z"/>
			<path style="opacity:0.72;fill:#FFFFFF;" d="M2514.815,2375.932l-3.457-163.038c-0.497-23.344,17.883-42.741,41.222-43.507
				l139.95-4.579c25.527-0.836,46.821,19.337,47.363,44.873l3.488,164.427c0.506,23.889-18.719,43.526-42.612,43.53l-143.333,0.015
				C2534.246,2417.656,2515.307,2399.116,2514.815,2375.932z"/>
			<path style="opacity:0.72;fill:#FFFFFF;" d="M2133.902,1835.855l-149.084,0.841c-21.706,0.123-39.495-17.195-39.956-38.898
				l-3.002-141.566c-0.486-22.835,18.334-41.378,41.158-40.559l149.215,5.359c21.052,0.757,37.859,17.811,38.305,38.875
				l2.872,135.363C2173.88,1817.457,2156.091,1835.73,2133.902,1835.855z"/>
			<path style="opacity:0.72;fill:#FFFFFF;" d="M2235.955,2375.235l-3.235-152.486c-0.504-23.75,18.196-43.488,41.941-44.265
				l141.746-4.64c24.135-0.79,44.267,18.284,44.779,42.426l3.333,157.109c0.516,24.305-19.044,44.285-43.354,44.29l-141.846,0.016
				C2255.722,2417.686,2236.455,2398.825,2235.955,2375.235z"/>
			<path style="opacity:0.72;fill:#FFFFFF;" d="M1980.936,1911.703l162.804,0.295c17.873,0.031,32.448,14.327,32.829,32.195
				l3.109,146.623c0.381,18.017-13.802,32.984-31.811,33.574l-162.686,5.323c-18.304,0.601-33.575-13.866-33.962-32.176
				l-3.229-152.245C1947.599,1926.835,1962.472,1911.669,1980.936,1911.703z"/>
			<path style="opacity:0.72;fill:#FFFFFF;" d="M1897.888,1951.944l2.963,139.641c0.48,22.643-17.346,41.456-39.981,42.197
				l-145.8,4.772c-23.006,0.752-42.197-17.428-42.685-40.442l-3.069-144.679c-0.492-23.2,18.202-42.262,41.407-42.219l145.907,0.265
				C1879.093,1911.519,1897.413,1929.486,1897.888,1951.944z"/>
			<path style="opacity:0.72;fill:#FFFFFF;" d="M2426.521,2115.269l-162.689,5.325c-18.305,0.6-33.573-13.868-33.961-32.178
				l-3.025-142.62c-0.393-18.458,14.482-33.624,32.945-33.59l162.808,0.293c17.872,0.034,32.448,14.329,32.828,32.196l2.905,136.999
				C2458.713,2099.71,2444.531,2114.68,2426.521,2115.269z"/>
			<path style="opacity:0.72;fill:#FFFFFF;" d="M1996.01,2187.604l141.745-4.64c24.133-0.79,44.266,18.283,44.779,42.426
				l3.139,148.018c0.516,24.304-19.045,44.287-43.354,44.289l-141.844,0.017c-23.596,0.003-42.864-18.858-43.363-42.449
				l-3.043-143.396C1953.566,2208.117,1972.264,2188.38,1996.01,2187.604z"/>
			<path style="opacity:0.72;fill:#FFFFFF;" d="M1712.453,2196.886l151.67-4.964c21.371-0.702,39.199,16.191,39.651,37.57
				l3.162,149.019c0.457,21.523-16.865,39.217-38.392,39.219l-151.775,0.017c-20.894,0.003-37.959-16.701-38.401-37.591
				l-3.057-144.073C1674.867,2215.051,1691.425,2197.573,1712.453,2196.886z"/>
			<path style="opacity:0.72;fill:#FFFFFF;" d="M2670.677,1830.895l-113.154,0.639c-30.097,0.169-54.762-23.841-55.399-53.932
				l-1.981-93.354c-0.599-28.207,22.648-51.114,50.843-50.101l125.929,4.521c28.57,1.026,51.379,24.171,51.984,52.756l1.655,77.963
				C2731.265,1803.01,2704.307,1830.705,2670.677,1830.895z"/>
			<path style="opacity:0.72;fill:#FFFFFF;" d="M2796.784,2523.12c-0.541-25.536,19.876-46.595,45.416-46.843l49.292-0.479
				c37.462-0.365,68.094,24.397,68.755,55.582l1.914,90.243c0.655,30.929-28.425,56.845-65.547,58.417l-52.92,2.24
				c-23.871,1.012-43.913-17.794-44.419-41.683L2796.784,2523.12z"/>
			<path style="opacity:0.72;fill:#FFFFFF;" d="M1211.779,2492.091l96.939-0.94c23.777-0.229,43.313,18.712,43.816,42.483
				l3.587,169.091c0.501,23.609-17.966,43.29-41.559,44.288l-96.499,4.084c-38.478,1.629-70.758-23.456-71.437-55.511
				l-3.078-145.008C1142.877,2518.78,1173.577,2492.463,1211.779,2492.091z"/>
			<path style="opacity:0.72;fill:#FFFFFF;" d="M2887.576,2417.615l-48.116,0.007c-24.958,0.001-45.337-19.948-45.866-44.899
				l-3.515-165.741c-0.535-25.122,19.245-45.998,44.359-46.819l48.43-1.585c38.185-1.25,69.974,23.743,70.649,55.542l3.075,145.005
				C2957.274,2391.182,2926.085,2417.612,2887.576,2417.615z"/>
			<path style="opacity:0.72;fill:#FFFFFF;" d="M2883.527,2100.312l-60.572,1.982c-19.305,0.631-35.408-14.626-35.819-33.938
				l-2.539-119.711c-0.413-19.469,15.276-35.464,34.746-35.429l61.165,0.112c37.093,0.066,67.154,24.706,67.808,55.584l1.548,72.952
				C2950.524,2073.049,2920.97,2099.086,2883.527,2100.312z"/>
			<path style="opacity:0.72;fill:#FFFFFF;" d="M1196.296,1585.492l97.211,3.492c21.901,0.785,39.383,18.527,39.847,40.437
				l3.543,167.022c0.49,23.078-18.014,42.088-41.098,42.217l-100.097,0.566c-37.334,0.211-67.761-24.508-68.42-55.583l-2.964-139.71
				C1123.619,1610.901,1156.667,1584.068,1196.296,1585.492z"/>
			<path style="opacity:0.72;fill:#FFFFFF;" d="M2003.304,2484.414l141.815-1.376c23.756-0.229,43.277,18.696,43.781,42.449
				l3.008,141.894c0.501,23.591-17.95,43.253-41.525,44.251l-141.716,5.998c-24.289,1.029-44.678-18.104-45.194-42.409
				l-3.109-146.519C1959.854,2504.559,1979.158,2484.649,2003.304,2484.414z"/>
			<path style="opacity:0.72;fill:#FFFFFF;" d="M1200.387,1910.293l98.531,0.177c22.462,0.042,40.78,18.01,41.257,40.466
				l3.371,158.889c0.482,22.642-17.345,41.456-39.98,42.197l-98.93,3.239c-38.183,1.25-69.972-23.743-70.647-55.542l-2.777-130.935
				C1130.529,1936.676,1161.813,1910.224,1200.387,1910.293z"/>
			<path style="opacity:0.72;fill:#FFFFFF;" d="M1203.976,2213.527l102.843-3.366c21.372-0.699,39.2,16.191,39.653,37.57
				l2.775,130.841c0.457,21.523-16.865,39.217-38.392,39.219l-103.335,0.011c-37.154,0.004-67.307-24.656-67.964-55.585
				l-1.915-90.243C1136.98,2240.789,1166.533,2214.752,1203.976,2213.527z"/>
			<path style="opacity:0.72;fill:#FFFFFF;" d="M1625.123,2238.611l2.97,139.93c0.455,21.522-16.865,39.218-38.393,39.221
				l-151.776,0.016c-20.896,0.002-37.958-16.7-38.401-37.593l-2.864-134.983c-0.446-21.032,16.114-38.51,37.14-39.197l151.67-4.965
				C1606.842,2200.34,1624.669,2217.232,1625.123,2238.611z"/>
			<path style="opacity:0.72;fill:#FFFFFF;" d="M1445.764,2489.822l141.743-1.374c23.777-0.23,43.313,18.71,43.817,42.483
				l3.395,160.002c0.501,23.609-17.966,43.287-41.559,44.288l-141.646,5.994c-24.309,1.031-44.716-18.12-45.232-42.446
				l-3.493-164.621C1402.276,2509.985,1421.598,2490.057,1445.764,2489.822z"/>
			<path style="opacity:0.72;fill:#FFFFFF;" d="M2875.561,1829.736l-59.317,0.335c-18.949,0.108-34.479-15.011-34.881-33.956
				l-2.484-117.087c-0.423-19.934,16.003-36.122,35.929-35.406l62.829,2.255c35.963,1.292,64.37,25.559,65.005,55.533l1.481,69.837
				C2944.801,1803.154,2913.894,1829.52,2875.561,1829.736z"/>
			<path style="opacity:0.72;fill:#FFFFFF;" d="M1724.553,2487.119l139.358-1.353c25.099-0.244,45.72,19.751,46.252,44.844
				l3.15,148.529c0.501,23.61-17.966,43.289-41.562,44.287l-141.643,5.996c-24.31,1.029-44.717-18.122-45.232-42.446l-3.3-155.534
				C1681.065,2507.28,1700.386,2487.353,1724.553,2487.119z"/>
			<path style="opacity:0.72;fill:#FFFFFF;" d="M1612.414,1639.445l3.297,155.423c0.49,23.079-18.016,42.087-41.099,42.217
				l-145.884,0.824c-22.581,0.128-41.089-17.887-41.567-40.464l-3.425-161.492c-0.505-23.754,19.071-43.045,42.817-42.192
				l146.012,5.243C1594.467,1599.793,1611.95,1617.535,1612.414,1639.445z"/>
			<path style="opacity:0.72;fill:#FFFFFF;" d="M1619.031,1951.439l3.167,149.267c0.48,22.643-17.346,41.457-39.98,42.197
				l-145.801,4.772c-23.005,0.753-42.195-17.429-42.683-40.444l-3.273-154.302c-0.493-23.2,18.201-42.26,41.406-42.218
				l145.907,0.263C1600.236,1911.015,1618.556,1928.982,1619.031,1951.439z"/>
			<path style="opacity:0.72;fill:#FFFFFF;" d="M2891.74,1519.968l-6.717,49.219c-2.151,15.76-15.445,27.615-31.348,27.953
				l-2.325,0.049c-17.851,0.379-32.631-13.786-33.009-31.638l-1.068-50.383c-0.416-19.526,16.447-34.958,35.86-32.821l10.111,1.113
				C2881.319,1485.45,2894.199,1501.949,2891.74,1519.968z"/>
			<path style="opacity:0.72;fill:#FFFFFF;" d="M2663.287,1507.298l-6.718,49.219c-2.149,15.761-15.445,27.615-31.347,27.952
				l-2.326,0.05c-17.853,0.378-32.63-13.786-33.008-31.638l-1.07-50.382c-0.414-19.527,16.447-34.959,35.86-32.822l10.111,1.113
				C2652.865,1472.779,2665.745,1489.281,2663.287,1507.298z"/>
			<path style="opacity:0.72;fill:#FFFFFF;" d="M2382.205,1511.167l-6.719,49.22c-2.15,15.76-15.445,27.615-31.347,27.953
				l-2.326,0.049c-17.852,0.379-32.63-13.786-33.008-31.638l-1.07-50.382c-0.413-19.526,16.447-34.958,35.862-32.821l10.11,1.113
				C2371.784,1476.65,2384.662,1493.149,2382.205,1511.167z"/>
			<path style="opacity:0.72;fill:#FFFFFF;" d="M2108.347,1498.904l-6.716,49.219c-2.151,15.76-15.445,27.615-31.348,27.953
				l-2.325,0.047c-17.852,0.38-32.632-13.786-33.009-31.637l-1.069-50.382c-0.415-19.526,16.447-34.958,35.859-32.822l10.112,1.113
				C2097.926,1464.385,2110.808,1480.884,2108.347,1498.904z"/>
			<path style="opacity:0.72;fill:#FFFFFF;" d="M1827.069,1463.135l-6.718,49.221c-2.15,15.759-15.445,27.615-31.347,27.953
				l-2.326,0.049c-17.852,0.379-32.63-13.787-33.009-31.639l-1.069-50.38c-0.413-19.526,16.447-34.959,35.861-32.824l10.111,1.113
				C1816.648,1428.618,1829.527,1445.119,1827.069,1463.135z"/>
			<path style="opacity:0.72;fill:#FFFFFF;" d="M1529.097,1469.457l-6.716,49.22c-2.151,15.759-15.445,27.614-31.349,27.951
				l-2.325,0.049c-17.852,0.379-32.63-13.786-33.009-31.638l-1.068-50.38c-0.414-19.527,16.447-34.959,35.86-32.823l10.112,1.113
				C1518.677,1434.939,1531.556,1451.44,1529.097,1469.457z"/>
			<path style="opacity:0.72;fill:#FFFFFF;" d="M1277.59,1464.189l-6.717,49.219c-2.15,15.76-15.445,27.615-31.347,27.952
				l-2.326,0.049c-17.852,0.379-32.63-13.786-33.008-31.638l-1.07-50.382c-0.413-19.527,16.447-34.958,35.862-32.821l10.11,1.113
				C1267.171,1429.672,1280.049,1446.171,1277.59,1464.189z"/>
			<g>
				<path style="fill:#BDD0FB;" d="M839.851,2854.398c2.906,0,5.272-2.345,5.292-5.256l6.432-928.69
					c0.02-2.924-2.333-5.31-5.257-5.331c-0.011,0-0.025,0-0.025,0c-2.919,0-5.284,2.345-5.305,5.256l-6.432,928.69
					c-0.02,2.924,2.334,5.31,5.257,5.331C839.814,2854.398,839.839,2854.398,839.851,2854.398z"/>
				<path style="fill:#BDD0FB;" d="M847.76,1712.47c2.906,0,5.272-2.347,5.293-5.258l2.247-324.349
					c0.02-2.923-2.333-5.309-5.257-5.33h-0.037c-2.906,0-5.272,2.346-5.292,5.257l-2.247,324.349
					c-0.02,2.924,2.333,5.31,5.257,5.329L847.76,1712.47z"/>
			</g>
			
				<linearGradient id="SVGID_00000173143664612401720830000003690786229231524259_" gradientUnits="userSpaceOnUse" x1="-1148.5503" y1="1235.244" x2="-1284.9833" y2="1499.9237" gradientTransform="matrix(-1 0 0 1 1610.4521 0)">
				<stop  offset="0" style="stop-color:#4F52FF"/>
				<stop  offset="1" style="stop-color:#4042E2"/>
			</linearGradient>
			
				<circle style="fill:url(#SVGID_00000173143664612401720830000003690786229231524259_);" cx="2835.456" cy="1383.564" r="56.585"/>
			
				<linearGradient id="SVGID_00000168800517925118295820000007539796135465508274_" gradientUnits="userSpaceOnUse" x1="-684.925" y1="1230.8906" x2="-821.358" y2="1495.5704" gradientTransform="matrix(-1 0 0 1 1610.4521 0)">
				<stop  offset="0" style="stop-color:#4F52FF"/>
				<stop  offset="1" style="stop-color:#4042E2"/>
			</linearGradient>
			<circle style="fill:url(#SVGID_00000168800517925118295820000007539796135465508274_);" cx="2371.831" cy="1379.21" r="56.585"/>
			
				<linearGradient id="SVGID_00000176725889622616958060000009492273148919578777_" gradientUnits="userSpaceOnUse" x1="-216.9464" y1="1215.6544" x2="-353.3792" y2="1480.3337" gradientTransform="matrix(-1 0 0 1 1610.4521 0)">
				<stop  offset="0" style="stop-color:#4F52FF"/>
				<stop  offset="1" style="stop-color:#4042E2"/>
			</linearGradient>
			
				<circle style="fill:url(#SVGID_00000176725889622616958060000009492273148919578777_);" cx="1903.852" cy="1363.974" r="56.585"/>
			
				<linearGradient id="SVGID_00000019664621234365157880000001800956327879037582_" gradientUnits="userSpaceOnUse" x1="246.679" y1="1193.8877" x2="110.2461" y2="1458.5674" gradientTransform="matrix(-1 0 0 1 1610.4521 0)">
				<stop  offset="0" style="stop-color:#4F52FF"/>
				<stop  offset="1" style="stop-color:#4042E2"/>
			</linearGradient>
			
				<circle style="fill:url(#SVGID_00000019664621234365157880000001800956327879037582_);" cx="1440.227" cy="1342.208" r="56.585"/>
			<g>
				
					<linearGradient id="SVGID_00000024711137255641391180000000266004958590662809_" gradientUnits="userSpaceOnUse" x1="488.6292" y1="617.4966" x2="-6.6437" y2="1578.325" gradientTransform="matrix(-1 0 0 1 1610.4521 0)">
					<stop  offset="0" style="stop-color:#FF928E"/>
					<stop  offset="1" style="stop-color:#FE7062"/>
				</linearGradient>
				<path style="fill:url(#SVGID_00000024711137255641391180000000266004958590662809_);" d="M1397.191,950.113
					c95.221,20.775,86.237,271.292,78.574,372.998c-1.803,23.933-21.736,42.395-45.737,42.395c-6.663,0-13.012-2.869-17.463-7.828
					c-4.451-4.958-6.577-11.592-5.868-18.217c8.225-76.871,25.727-298.245-44.373-310.082c0,0-50.284-8.897-58.744,88.505h-54.401
					C1249.179,1117.884,1277.476,923.994,1397.191,950.113z"/>
				
					<linearGradient id="SVGID_00000088121600072616098080000017661898907277032604_" gradientUnits="userSpaceOnUse" x1="25.0332" y1="630.2389" x2="-470.3907" y2="1591.3601" gradientTransform="matrix(-1 0 0 1 1610.4521 0)">
					<stop  offset="0" style="stop-color:#FF928E"/>
					<stop  offset="1" style="stop-color:#FE7062"/>
				</linearGradient>
				<path style="fill:url(#SVGID_00000088121600072616098080000017661898907277032604_);" d="M1860.817,962.996
					c95.221,20.775,86.237,271.38,78.574,373.086c-1.803,23.933-21.736,42.44-45.737,42.44c-6.663,0-13.012-2.847-17.462-7.806
					c-4.451-4.958-6.577-11.581-5.868-18.206c8.225-76.871,25.727-298.417-44.374-310.254c0,0-50.284-6.952-58.744,88.332h-54.401
					C1712.804,1130.589,1741.101,936.876,1860.817,962.996z"/>
				
					<linearGradient id="SVGID_00000017516904496245839270000001179397752556144779_" gradientUnits="userSpaceOnUse" x1="-438.5729" y1="643.0902" x2="-934.0958" y2="1604.4034" gradientTransform="matrix(-1 0 0 1 1610.4521 0)">
					<stop  offset="0" style="stop-color:#FF928E"/>
					<stop  offset="1" style="stop-color:#FE7062"/>
				</linearGradient>
				<path style="fill:url(#SVGID_00000017516904496245839270000001179397752556144779_);" d="M2324.442,975.939
					c95.221,20.776,86.237,271.439,78.574,373.145c-1.803,23.933-21.737,42.469-45.737,42.469c-6.663,0-13.012-2.833-17.462-7.791
					c-4.451-4.958-6.577-11.574-5.868-18.199c8.225-76.871,25.727-298.53-44.374-310.367c0,0-50.261-5.661-58.72,90.112
					l-54.425-1.892C2176.43,1143.415,2204.726,949.819,2324.442,975.939z"/>
				
					<linearGradient id="SVGID_00000161597909521626519250000007516554884870861497_" gradientUnits="userSpaceOnUse" x1="-902.154" y1="657.8471" x2="-1397.9047" y2="1619.6022" gradientTransform="matrix(-1 0 0 1 1610.4521 0)">
					<stop  offset="0" style="stop-color:#FF928E"/>
					<stop  offset="1" style="stop-color:#FE7062"/>
				</linearGradient>
				<path style="fill:url(#SVGID_00000161597909521626519250000007516554884870861497_);" d="M2788.067,990.907
					c95.22,20.775,86.237,271.573,78.574,373.279c-1.803,23.933-21.736,42.536-45.737,42.536c-6.663,0-13.012-2.799-17.463-7.757
					c-4.45-4.958-6.577-11.557-5.868-18.182c8.226-76.871,25.727-298.79-44.373-310.627c0,0-50.284-7.325-58.744,87.96h-54.401
					C2640.055,1158.115,2668.352,964.787,2788.067,990.907z"/>
			</g>
			
				<linearGradient id="SVGID_00000036248953340861002760000002565245100601908099_" gradientUnits="userSpaceOnUse" x1="2749.9241" y1="1567.5359" x2="2514.6692" y2="2376.3452">
				<stop  offset="0" style="stop-color:#FF928E"/>
				<stop  offset="1" style="stop-color:#FE7062"/>
			</linearGradient>
			<path style="fill:url(#SVGID_00000036248953340861002760000002565245100601908099_);" d="M2554.058,2116.903
				c-13.276,0-25.828-4.997-35.515-14.176c-10.107-9.573-15.835-22.514-16.129-36.432l-2.261-106.592
				c-0.298-14.035,4.952-27.28,14.779-37.302c9.805-9.998,22.91-15.501,36.91-15.501c0.03,0,0.063,0,0.093,0l136.848,0.247
				c27.859,0.049,51.006,22.754,51.598,50.607l2.161,101.868c0.598,28.177-21.831,51.853-50,52.776l-136.747,4.473
				C2555.217,2116.892,2554.635,2116.903,2554.058,2116.903z M2551.843,1918.567c-10.841,0-20.988,4.261-28.583,12.003
				c-7.61,7.758-11.675,18.019-11.445,28.883l2.261,106.592c0.23,10.781,4.665,20.802,12.491,28.214
				c7.826,7.42,18.066,11.32,28.849,10.955l136.745-4.473c21.812-0.718,39.183-19.051,38.72-40.867l-2.161-101.868
				c-0.459-21.573-18.385-39.155-39.96-39.193l-136.845-0.247C2551.915,1918.567,2551.865,1918.567,2551.843,1918.567z"/>
			
				<linearGradient id="SVGID_00000138567501166232838830000004696771318468052877_" gradientUnits="userSpaceOnUse" x1="2238.1543" y1="1418.6807" x2="2002.9" y2="2227.488">
				<stop  offset="0" style="stop-color:#FF928E"/>
				<stop  offset="1" style="stop-color:#FE7062"/>
			</linearGradient>
			<path style="fill:url(#SVGID_00000138567501166232838830000004696771318468052877_);" d="M1984.063,2135.563
				c-9.94,0-19.338-3.74-26.591-10.61c-7.572-7.173-11.863-16.868-12.083-27.296l-3.228-152.24
				c-0.224-10.511,3.706-20.434,11.065-27.937c7.344-7.488,17.16-11.609,27.647-11.609c0.025,0,0.047,0,0.074,0l162.806,0.292
				c20.866,0.034,38.205,17.039,38.647,37.901l3.11,146.624c0.446,21.106-16.355,38.836-37.451,39.531l-162.687,5.32
				C1984.936,2135.555,1984.497,2135.563,1984.063,2135.563z M1980.873,1917.537c-7.327,0-14.185,2.878-19.317,8.111
				c-5.144,5.244-7.889,12.174-7.733,19.519l3.228,152.244c0.154,7.287,3.154,14.062,8.443,19.071
				c5.292,5.016,12.199,7.614,19.497,7.401l162.687-5.32c14.741-0.486,26.481-12.877,26.172-27.626l-3.11-146.62
				c-0.311-14.582-12.425-26.46-27.007-26.487l-162.808-0.292C1980.907,1917.537,1980.89,1917.537,1980.873,1917.537z"/>
			
				<linearGradient id="SVGID_00000133519714231832458920000011072817097473882812_" gradientUnits="userSpaceOnUse" x1="2494.0088" y1="1493.0984" x2="2258.7542" y2="2301.907">
				<stop  offset="0" style="stop-color:#FF928E"/>
				<stop  offset="1" style="stop-color:#FE7062"/>
			</linearGradient>
			<path style="fill:url(#SVGID_00000133519714231832458920000011072817097473882812_);" d="M2262.719,2126.446
				c-9.941,0-19.342-3.74-26.597-10.614c-7.57-7.173-11.861-16.868-12.081-27.295l-3.026-142.614
				c-0.224-10.511,3.706-20.434,11.067-27.941c7.344-7.488,17.16-11.609,27.647-11.609c0.025,0,0.047,0,0.074,0l162.808,0.292
				c20.867,0.042,38.203,17.046,38.646,37.905l2.905,136.997c0.448,21.11-16.351,38.843-37.449,39.531l-162.691,5.324
				C2263.586,2126.438,2263.152,2126.446,2262.719,2126.446z M2259.729,1918.039c-7.327,0-14.185,2.878-19.317,8.111
				c-5.144,5.248-7.891,12.178-7.735,19.522l3.026,142.618c0.154,7.287,3.154,14.062,8.444,19.074
				c5.288,5.009,12.203,7.557,19.494,7.401l162.692-5.324c14.741-0.482,26.479-12.873,26.168-27.622l-2.905-136.998
				c-0.31-14.578-12.425-26.464-27.007-26.49l-162.808-0.292C2259.764,1918.039,2259.746,1918.039,2259.729,1918.039z"/>
		</g>
		<g>
			<g>
				
					<linearGradient id="SVGID_00000079464153318837194220000011058193839417815480_" gradientUnits="userSpaceOnUse" x1="1314.6254" y1="2418.4719" x2="899.3034" y2="3194.6472">
					<stop  offset="0" style="stop-color:#09005D"/>
					<stop  offset="1" style="stop-color:#1A0F91"/>
				</linearGradient>
				<path style="fill:url(#SVGID_00000079464153318837194220000011058193839417815480_);" d="M717.051,2166.716
					c0,0-127.721,70.752-138.288,190.496c-10.567,119.744-0.88,616.753,255.233,739.081s595.119,94.135,724.883,80.762
					c129.764-13.373,201.714-101.563,217.786-162.284c16.072-60.721,42.032-286.915-94.477-359.877
					c-136.51-72.962-279.885-184.743-423.152-293.588C1115.769,2252.46,870.242,2074.783,717.051,2166.716z"/>
				
					<linearGradient id="SVGID_00000083779856043722084880000008784583511402276013_" gradientUnits="userSpaceOnUse" x1="1676.7653" y1="2763.5825" x2="1801.7318" y2="2894.1033">
					<stop  offset="0" style="stop-color:#09005D"/>
					<stop  offset="1" style="stop-color:#1A0F91"/>
				</linearGradient>
				<path style="fill:url(#SVGID_00000083779856043722084880000008784583511402276013_);" d="M1641.933,2696.174
					c0,0-34.472,1.823-38.698,72.743c0,0,79.933,71.656,187.907,88.711c8.106,1.28-11.332-55.334-14.254-63.003
					C1762.983,2758.135,1719.194,2734.635,1641.933,2696.174z"/>
				
					<linearGradient id="SVGID_00000016066351824548534720000008207527956269436067_" gradientUnits="userSpaceOnUse" x1="1483.8846" y1="2634.1135" x2="1614.0011" y2="2144.009">
					<stop  offset="0" style="stop-color:#4F52FF"/>
					<stop  offset="1" style="stop-color:#4042E2"/>
				</linearGradient>
				<path style="fill:url(#SVGID_00000016066351824548534720000008207527956269436067_);" d="M1253.713,2612.786h72.743
					c0,0,223.268-246.579,369.703-271.456c0,0,101.933,130.117-5.429,373.235c-8.637,19.557-32.792,28.246-50.81,16.738
					c-5.389-3.442-9.259-8.055-11.609-13.839l8.634-207.584c0,0-190.448,166.568-223.552,198.713
					C1380.29,2740.738,1212.024,2721.146,1253.713,2612.786z"/>
				
					<linearGradient id="SVGID_00000021813962817473734400000015779680901145292678_" gradientUnits="userSpaceOnUse" x1="1842.5405" y1="3091.1897" x2="2078.9192" y2="3264.6785">
					<stop  offset="0" style="stop-color:#09005D"/>
					<stop  offset="1" style="stop-color:#1A0F91"/>
				</linearGradient>
				<path style="fill:url(#SVGID_00000021813962817473734400000015779680901145292678_);" d="M1956.986,3130.49
					c-30.483-26.711-79.053-56.685-149.17-65.279l-23.713,14.504c0,0,15.121,22.303,42.744,45.863
					c25.388,14.746,64.59,34.718,97.091,39.047C1955.536,3168.834,1960.196,3149.74,1956.986,3130.49z"/>
				
					<linearGradient id="SVGID_00000139255680235567278810000011770342111532469899_" gradientUnits="userSpaceOnUse" x1="1955.4915" y1="2998.9202" x2="1458.1565" y2="2592.6675">
					<stop  offset="0" style="stop-color:#FEBBBA"/>
					<stop  offset="1" style="stop-color:#FF928E"/>
				</linearGradient>
				<path style="fill:url(#SVGID_00000139255680235567278810000011770342111532469899_);" d="M1776.887,2794.625
					c-18.779,6.078-27.039,32.685-74.692,15.091c-46.103-17.022-80.375-38.974-98.008-51.633c-0.394,3.43-0.725,7.013-0.953,10.835
					c0,0,84.281,80.166,192.255,97.22c8.106,1.281,14.53-6.811,11.607-14.479
					C1801.855,2837.898,1792.401,2817.028,1776.887,2794.625z"/>
				
					<linearGradient id="SVGID_00000060025517020241206570000002100266228263965604_" gradientUnits="userSpaceOnUse" x1="2090.3989" y1="3290.2073" x2="1593.0652" y2="2883.9553">
					<stop  offset="0" style="stop-color:#FEBBBA"/>
					<stop  offset="1" style="stop-color:#FF928E"/>
				</linearGradient>
				<path style="fill:url(#SVGID_00000060025517020241206570000002100266228263965604_);" d="M1979.95,3153.3
					c-6.009-6.83-13.68-14.675-22.964-22.81c3.211,19.25-1.45,38.344-33.048,34.135c-32.5-4.329-71.703-24.301-97.091-39.047
					c31.819,27.138,80.234,55.941,141.34,54.25C1981.76,3179.454,1988.919,3163.494,1979.95,3153.3z"/>
				
					<linearGradient id="SVGID_00000013162027792075118360000011639267854254929804_" gradientUnits="userSpaceOnUse" x1="1845.936" y1="2762.1326" x2="1351.493" y2="2948.6328">
					<stop  offset="0" style="stop-color:#4F52FF"/>
					<stop  offset="1" style="stop-color:#4042E2"/>
				</linearGradient>
				<path style="fill:url(#SVGID_00000013162027792075118360000011639267854254929804_);" d="M1256.375,2665.419l340.65,3.688
					c0,0,194.536,160.951,229.822,406.375c0,0,5.857,18.05-29.307,21.138c0,0-117.615-76.817-194.305-212.629
					c-94.034-166.526-280.327-91.565-280.327-91.565c-61.211-44.13-147.704-53.117-212.865-67.819L1256.375,2665.419z"/>
				
					<linearGradient id="SVGID_00000045597022830877258450000006246685405486830226_" gradientUnits="userSpaceOnUse" x1="1460.6443" y1="2450.0107" x2="1300.167" y2="2640.8486">
					<stop  offset="0" style="stop-color:#FEBBBA"/>
					<stop  offset="1" style="stop-color:#FF928E"/>
				</linearGradient>
				<path style="fill:url(#SVGID_00000045597022830877258450000006246685405486830226_);" d="M1264.419,2391.008
					c0,0,36.672,183.782,216.352,256.488l63.914-7.533l15.082,24.047l-149.923,4.777c0,0-128.153-50.759-196.051-189.069
					C1211.55,2475.149,1174.161,2397.948,1264.419,2391.008z"/>
				
					<linearGradient id="SVGID_00000106825661406424213230000004027972715412066738_" gradientUnits="userSpaceOnUse" x1="1427.0957" y1="1863.4662" x2="984.539" y2="2687.3008">
					<stop  offset="0" style="stop-color:#FF928E"/>
					<stop  offset="1" style="stop-color:#FE7062"/>
				</linearGradient>
				<path style="fill:url(#SVGID_00000106825661406424213230000004027972715412066738_);" d="M1284.071,2662.416
					c0,0-41.702-113.358-50.665-223.503c0,0,30.508-26.219,49.577-37.531c6.176-3.664,8.507-11.412,5.385-17.878
					c-14.02-29.043-98.803-143.081-105.153-144.666c-34.52-8.615-176.092-75.929-275.8,60.457
					c-42.791,58.532,8.492,238.714,202.628,425.312l40.05,7.66L1284.071,2662.416z"/>
				
					<linearGradient id="SVGID_00000120530541653656299450000016777861261946527669_" gradientUnits="userSpaceOnUse" x1="1297.4774" y1="2591.3291" x2="1600.9045" y2="1909.9487">
					<stop  offset="0" style="stop-color:#FEBBBA"/>
					<stop  offset="1" style="stop-color:#FF928E"/>
				</linearGradient>
				<path style="fill:url(#SVGID_00000120530541653656299450000016777861261946527669_);" d="M1123.382,2463.751
					c0,0,115.86,137.186,263.99,157.24c0,0,38.283-34.901,66.749-22.441c28.467,12.46,67.5,67.461,67.5,67.461h-190.198
					c0,0-179.839-6.337-269.704-115.391C1068.95,2512.462,1090.605,2489.667,1123.382,2463.751z"/>
				
					<linearGradient id="SVGID_00000153705346504982419890000011028240213267326103_" gradientUnits="userSpaceOnUse" x1="1011.1275" y1="2461.2605" x2="1092.8302" y2="2190.6206">
					<stop  offset="0" style="stop-color:#FEBBBA"/>
					<stop  offset="1" style="stop-color:#FF928E"/>
				</linearGradient>
				<path style="fill:url(#SVGID_00000153705346504982419890000011028240213267326103_);" d="M1055.792,2142.616l-25.351,84.551
					c-1.161,3.874,0.273,8.069,3.61,10.354c12.205,8.36,44.104,24.983,87.865,8.828c5.005-1.848,8.434-6.522,8.868-11.839
					l6.01-73.657L1055.792,2142.616z"/>
				<g>
					
						<linearGradient id="SVGID_00000052079170181914820100000009960780444010608062_" gradientUnits="userSpaceOnUse" x1="1156.6926" y1="2220.585" x2="1071.5858" y2="1941.4344">
						<stop  offset="0" style="stop-color:#FEBBBA"/>
						<stop  offset="1" style="stop-color:#FF928E"/>
					</linearGradient>
					<path style="fill:url(#SVGID_00000052079170181914820100000009960780444010608062_);" d="M1204.234,2074.143
						c0,0-12.464,87.646-46.132,114.599c-33.668,26.954-99.265,6.659-121.421-59.415l44.145-112.975L1204.234,2074.143z"/>
					
						<linearGradient id="SVGID_00000093136243622222097740000012578362075410406812_" gradientUnits="userSpaceOnUse" x1="1093.4274" y1="1852.4442" x2="1141.7377" y2="2127.9917">
						<stop  offset="0" style="stop-color:#09005D"/>
						<stop  offset="1" style="stop-color:#1A0F91"/>
					</linearGradient>
					<path style="fill:url(#SVGID_00000093136243622222097740000012578362075410406812_);" d="M1075.854,2089.458
						c2.561,0.825,5.242-0.816,5.642-3.477c1.215-8.091,4.249-24.103,10.391-35.008c0,0-3.213-11.499,29.061,5.872
						c32.274,17.371,80.748,42.888,109.287,27.694c27.825-14.815,56.01-89.373-17.527-75.559c-2.798,0.526-5.37-1.704-5.161-4.543
						c0.903-12.254-0.313-40.445-28.861-49.494c-26.715-8.468-12.372,5.257-18.398,12.536c-1.773,2.141,2.238-7.292-35.723-1.773
						c-13.024,1.893-29.737-32.686-61.731-18.586c-26.353,11.614-30.452,27.846-30.017,37.961c0.141,3.277-3.185,5.498-6.164,4.126
						c-8.071-3.717-21.053-5.648-33.489,9.933c-17.192,21.541,7.376,40.22,14.746,45.118c1.207,0.802,1.958,2.132,1.967,3.582
						c0.069,11.202,1.814,60.067,26.305,87.63c2.121,2.387,6.04,1.687,7.275-1.257l18.857-44.929
						c0.876-2.086,3.203-3.156,5.356-2.462L1075.854,2089.458z"/>
					
						<linearGradient id="SVGID_00000150092834338170037910000004936125464766354854_" gradientUnits="userSpaceOnUse" x1="1102.8162" y1="2237.0105" x2="1017.7094" y2="1957.8599">
						<stop  offset="0" style="stop-color:#FEBBBA"/>
						<stop  offset="1" style="stop-color:#FF928E"/>
					</linearGradient>
					<path style="fill:url(#SVGID_00000150092834338170037910000004936125464766354854_);" d="M1076.252,2098.58
						c0,0-11.515-46.901-29.007-31.673c-17.492,15.228,4.56,48.743,24.598,55.131L1076.252,2098.58z"/>
				</g>
				
					<linearGradient id="SVGID_00000045598343704230800710000009652497186989120431_" gradientUnits="userSpaceOnUse" x1="1512.0455" y1="2524.3667" x2="1756.1343" y2="2524.3667">
					<stop  offset="0" style="stop-color:#09005D"/>
					<stop  offset="1" style="stop-color:#1A0F91"/>
				</linearGradient>
				<path style="fill:url(#SVGID_00000045598343704230800710000009652497186989120431_);" d="M1512.046,2676.658l85.398-284.794
					c3.484-11.619,13.805-19.861,25.907-20.689l115.299-7.889c11.719-0.802,20.437,10.647,16.546,21.731l-95.468,271.975
					c-3.076,8.762-10.941,14.955-20.181,15.888l-113.539,12.608L1512.046,2676.658z"/>
				<path style="fill:#91B3FA;" d="M1669.543,2488.388c-6.376,12.87-17.386,20.409-24.592,16.839
					c-7.206-3.57-7.88-16.897-1.504-29.767c6.375-12.87,17.386-20.409,24.592-16.839
					C1675.245,2462.191,1675.918,2475.518,1669.543,2488.388z"/>
				
					<linearGradient id="SVGID_00000145768554323006222680000010310811139138639503_" gradientUnits="userSpaceOnUse" x1="1541.6709" y1="2631.0642" x2="1346.4961" y2="2684.5564">
					<stop  offset="0" style="stop-color:#09005D"/>
					<stop  offset="1" style="stop-color:#1A0F91"/>
				</linearGradient>
				<path style="fill:url(#SVGID_00000145768554323006222680000010310811139138639503_);" d="M1526.008,2685.488
					c-0.185,0-0.37-0.004-0.557-0.015l-241.927-12.228c-5.981-0.301-10.584-5.394-10.282-11.374
					c0.302-5.983,5.417-10.684,11.377-10.282l241.927,12.228c5.981,0.301,10.584,5.394,10.282,11.375
					C1536.534,2680.985,1531.744,2685.488,1526.008,2685.488z"/>
				
					<linearGradient id="SVGID_00000002378707096237917480000014635293070298654368_" gradientUnits="userSpaceOnUse" x1="1088.9857" y1="2491.3064" x2="488.0157" y2="2990.5374">
					<stop  offset="0" style="stop-color:#E1473D"/>
					<stop  offset="1" style="stop-color:#E9605A"/>
				</linearGradient>
				<path style="fill:url(#SVGID_00000002378707096237917480000014635293070298654368_);" d="M1233.409,2440.83
					c-1.056,0-1.925-0.862-1.918-1.925c0.163-50.54-19.342-117.639-19.543-118.312c-0.297-1.015,0.282-2.082,1.301-2.383
					c1.033-0.29,2.089,0.282,2.386,1.305c0.201,0.676,19.862,68.299,19.691,119.404
					C1235.327,2439.975,1234.465,2440.83,1233.409,2440.83z"/>
				
					<linearGradient id="SVGID_00000075156883830644929430000009907431279087536258_" gradientUnits="userSpaceOnUse" x1="1047.0117" y1="2440.7793" x2="446.0412" y2="2940.0105">
					<stop  offset="0" style="stop-color:#E1473D"/>
					<stop  offset="1" style="stop-color:#E9605A"/>
				</linearGradient>
				<path style="fill:url(#SVGID_00000075156883830644929430000009907431279087536258_);" d="M1123.386,2465.669
					c-0.565,0-1.13-0.249-1.509-0.729c-0.528-0.673-53.447-67.935-71.637-114.034c-0.394-0.989,0.097-2.104,1.078-2.49
					c0.989-0.39,2.104,0.089,2.49,1.078c17.989,45.575,70.551,112.398,71.086,113.067c0.654,0.833,0.513,2.041-0.32,2.695
					C1124.226,2465.535,1123.802,2465.669,1123.386,2465.669z"/>
				
					<linearGradient id="SVGID_00000071528350202329925880000016000994833279942053_" gradientUnits="userSpaceOnUse" x1="1053.5374" y1="2448.6343" x2="452.5691" y2="2947.8638">
					<stop  offset="0" style="stop-color:#E1473D"/>
					<stop  offset="1" style="stop-color:#E9605A"/>
				</linearGradient>
				<path style="fill:url(#SVGID_00000071528350202329925880000016000994833279942053_);" d="M1048.924,2568.511l-1.427-0.61
					c-76.55-32.774-123.835-124.169-124.303-125.087c-0.483-0.948-0.104-2.104,0.84-2.583c0.922-0.476,2.081-0.115,2.579,0.836
					c0.461,0.903,46.541,89.953,120.973,122.686l7.887-11.143c0.624-0.873,1.821-1.067,2.676-0.461
					c0.87,0.613,1.07,1.81,0.461,2.676L1048.924,2568.511z"/>
			</g>
		</g>
		<g>
			<g>
				
					<linearGradient id="SVGID_00000121974423194330888500000005678499743568646826_" gradientUnits="userSpaceOnUse" x1="1587.3723" y1="1940.5543" x2="1961.1624" y2="1439.1296">
					<stop  offset="0" style="stop-color:#09005D"/>
					<stop  offset="1" style="stop-color:#1A0F91"/>
				</linearGradient>
				<path style="fill:url(#SVGID_00000121974423194330888500000005678499743568646826_);" d="M1622.691,1321.37
					c0,0,171.062,451.146,225.106,544.996c62.735,108.942,245.954,39.522,236.837-51.651
					c-9.117-91.173-223.181-468.022-223.181-468.022L1622.691,1321.37z"/>
				<path style="fill:#91B3FA;" d="M1981.764,1868.881c-7.852,0-15.789-0.847-23.707-2.573
					c-34.646-7.549-62.852-30.394-77.384-62.679l-136.147-302.465c-0.994-2.205-0.01-4.798,2.197-5.794
					c2.207-0.996,4.801-0.006,5.794,2.199l136.147,302.465c13.381,29.723,39.354,50.76,71.259,57.709
					c31.357,6.838,63.085-1.278,87.057-22.258c1.285-1.124,2.576-2.279,3.873-3.463c1.786-1.632,4.557-1.509,6.191,0.28
					c1.632,1.786,1.508,4.559-0.28,6.19c-1.345,1.23-2.682,2.425-4.014,3.589
					C2032.725,1859.604,2007.724,1868.881,1981.764,1868.881z"/>
				<path style="fill:#91B3FA;" d="M1728.394,1459.025c-1.672,0-3.268-0.961-3.998-2.582l-15.188-33.743
					c-0.994-2.205-0.01-4.798,2.197-5.794c2.205-0.993,4.801-0.005,5.794,2.197l15.188,33.74c0.994,2.208,0.01,4.801-2.197,5.797
					C1729.606,1458.902,1728.994,1459.025,1728.394,1459.025z"/>
			</g>
			<g>
				
					<linearGradient id="SVGID_00000150101171878909103680000007580761608190752418_" gradientUnits="userSpaceOnUse" x1="3194.3164" y1="971.5738" x2="1955.1636" y2="1482.2145">
					<stop  offset="0" style="stop-color:#FF928E"/>
					<stop  offset="1" style="stop-color:#FE7062"/>
				</linearGradient>
				<polygon style="fill:url(#SVGID_00000150101171878909103680000007580761608190752418_);" points="1853.827,992.734 
					2917.038,624.101 2905.872,1621.679 1824.771,1380.458 				"/>
				
					<linearGradient id="SVGID_00000114778790463813025450000010920778923117082810_" gradientUnits="userSpaceOnUse" x1="3302.8123" y1="883.0121" x2="4446.6455" y2="161.3071">
					<stop  offset="0" style="stop-color:#FEBBBA"/>
					<stop  offset="1" style="stop-color:#FF928E"/>
				</linearGradient>
				
					<ellipse style="fill:url(#SVGID_00000114778790463813025450000010920778923117082810_);" cx="2918.041" cy="1125.785" rx="104.457" ry="512.662"/>
				
					<linearGradient id="SVGID_00000151514035066676955030000016505768934192414080_" gradientUnits="userSpaceOnUse" x1="3706.7502" y1="461.3128" x2="2814.8311" y2="1217.0597">
					<stop  offset="0" style="stop-color:#FF928E"/>
					<stop  offset="1" style="stop-color:#FE7062"/>
				</linearGradient>
				<path style="fill:url(#SVGID_00000151514035066676955030000016505768934192414080_);" d="M2925.969,1603.388
					c-9.441-9.602-30.008-46.643-47.64-142.426c-17.042-92.565-26.426-212.628-26.426-338.07
					c0-125.443,9.384-245.506,26.426-338.071c17.632-95.785,38.199-132.825,47.64-142.428c9.441,9.603,30.008,46.643,47.64,142.428
					c17.042,92.565,26.426,212.627,26.426,338.071c0,125.443-9.385,245.505-26.426,338.07
					C2955.977,1556.745,2935.409,1593.786,2925.969,1603.388z"/>
				<g>
					<defs>
						<path id="SVGID_00000083770209282582114730000014793805864181336988_" d="M2925.969,1603.388
							c-9.441-9.602-30.008-46.643-47.64-142.426c-17.042-92.565-26.426-212.628-26.426-338.07
							c0-125.443,9.384-245.506,26.426-338.071c17.632-95.785,38.199-132.825,47.64-142.428
							c9.441,9.603,30.008,46.643,47.64,142.428c17.042,92.565,151.514,212.627,151.514,338.071
							c0,125.443-134.472,245.505-151.514,338.07C2955.977,1556.745,2935.409,1593.786,2925.969,1603.388z"/>
					</defs>
					<clipPath id="SVGID_00000085224911029960432940000005098627994241329080_">
						<use xlink:href="#SVGID_00000083770209282582114730000014793805864181336988_"  style="overflow:visible;"/>
					</clipPath>
					
						<linearGradient id="SVGID_00000115497895887355530110000000226626745546036377_" gradientUnits="userSpaceOnUse" x1="3149.4622" y1="1105.9066" x2="2407.9216" y2="1148.4545">
						<stop  offset="0" style="stop-color:#09005D"/>
						<stop  offset="1" style="stop-color:#1A0F91"/>
					</linearGradient>
					
						<path style="clip-path:url(#SVGID_00000085224911029960432940000005098627994241329080_);fill:url(#SVGID_00000115497895887355530110000000226626745546036377_);" d="
						M3059.853,1119.073c0,87.107-46.924,157.721-139.799,157.721s-168.164-70.614-168.164-157.721s75.29-157.721,168.164-157.721
						S3059.853,1031.966,3059.853,1119.073z"/>
				</g>
				
					<linearGradient id="SVGID_00000114788907920221093830000002426791176661787790_" gradientUnits="userSpaceOnUse" x1="1744.7817" y1="1369.3688" x2="1717.4307" y2="681.047">
					<stop  offset="0" style="stop-color:#09005D"/>
					<stop  offset="1" style="stop-color:#1A0F91"/>
				</linearGradient>
				<path style="fill:url(#SVGID_00000114788907920221093830000002426791176661787790_);" d="M1682.347,971.29
					c50.015-5.808,121.736-7.898,199.282,9.861c-25.549,133.459-21.693,272.563,7.855,416.6l-218.72,0
					c-34.871,0-64.606-25.329-70.045-59.774c-10.9-69.043-24.227-185.087-10.017-278.289
					C1597.833,1012.914,1635.348,976.748,1682.347,971.29z"/>
				<path style="fill:#91B3FA;" d="M1813.611,1073.503h-170.409c-5.784,0-10.888-3.032-13.652-8.114
					c-2.763-5.081-2.537-11.015,0.605-15.87c1.315-2.031,4.028-2.602,6.059-1.298c2.031,1.315,2.613,4.028,1.298,6.062
					c-1.369,2.117-1.468,4.701-0.264,6.918c1.205,2.214,3.432,3.538,5.954,3.538h170.409c3.737,0,6.777-3.038,6.777-6.776v-12.127
					c0-3.737-3.04-6.776-6.777-6.776h-171.673c-2.421,0-4.382-1.963-4.382-4.382c0-2.419,1.961-4.382,4.382-4.382h171.673
					c8.57,0,15.541,6.973,15.541,15.539v12.127C1829.152,1066.531,1822.181,1073.503,1813.611,1073.503z"/>
				<path style="fill:#91B3FA;" d="M1798.416,1148.974h-170.409c-5.784,0-10.888-3.033-13.652-8.113
					c-2.763-5.081-2.538-11.015,0.605-15.87c1.315-2.029,4.03-2.602,6.059-1.298c2.031,1.315,2.613,4.028,1.298,6.062
					c-1.37,2.117-1.468,4.702-0.264,6.918c1.205,2.214,3.432,3.537,5.954,3.537h170.409c3.737,0,6.777-3.038,6.777-6.775v-12.124
					c0-3.737-3.04-6.778-6.777-6.778h-171.673c-2.421,0-4.382-1.963-4.382-4.382s1.961-4.382,4.382-4.382h171.673
					c8.57,0,15.541,6.972,15.541,15.542v12.124C1813.956,1142.001,1806.986,1148.974,1798.416,1148.974z"/>
				<path style="opacity:0.76;fill:#FFFFFF;" d="M2008.318,965.733c-1.857,0-3.58-1.19-4.174-3.053
					c-0.734-2.308,0.541-4.77,2.846-5.506l805.264-256.25c2.305-0.733,4.77,0.542,5.505,2.847c0.734,2.308-0.541,4.77-2.846,5.506
					l-805.264,256.25C2009.206,965.667,2008.759,965.733,2008.318,965.733z"/>
				<path style="opacity:0.76;fill:#FFFFFF;" d="M1899.424,1010.248c-1.727,0-3.364-1.027-4.058-2.725
					c-0.916-2.24,0.158-4.798,2.399-5.714l41.444-16.94c2.238-0.922,4.798,0.159,5.714,2.399c0.916,2.239-0.158,4.798-2.399,5.714
					l-41.444,16.94C1900.537,1010.145,1899.975,1010.248,1899.424,1010.248z"/>
				<path style="fill:#91B3FA;" d="M1813.611,1237.362h-170.409c-5.784,0-10.886-3.032-13.651-8.113
					c-2.764-5.081-2.539-11.015,0.604-15.87c1.315-2.034,4.028-2.608,6.059-1.301c2.031,1.315,2.613,4.028,1.298,6.059
					c-1.371,2.12-1.469,4.707-0.262,6.924c1.205,2.214,3.43,3.538,5.952,3.538h170.409c3.737,0,6.777-3.041,6.777-6.778v-12.124
					c0-3.737-3.04-6.776-6.777-6.776h-171.673c-2.421,0-4.382-1.962-4.382-4.382c0-2.419,1.961-4.382,4.382-4.382h171.673
					c8.57,0,15.541,6.972,15.541,15.539v12.124C1829.152,1230.39,1822.181,1237.362,1813.611,1237.362z"/>
				<path style="fill:#91B3FA;" d="M1829.567,1335.47h-170.409c-5.784,0-10.886-3.033-13.651-8.114
					c-2.764-5.081-2.539-11.015,0.604-15.87c1.317-2.034,4.03-2.608,6.059-1.301c2.031,1.315,2.613,4.028,1.298,6.059
					c-1.371,2.12-1.469,4.707-0.262,6.924c1.205,2.214,3.43,3.538,5.952,3.538h170.409c3.737,0,6.777-3.038,6.777-6.776v-12.127
					c0-3.737-3.039-6.775-6.777-6.775h-171.673c-2.421,0-4.382-1.963-4.382-4.382c0-2.419,1.961-4.382,4.382-4.382h171.673
					c8.57,0,15.54,6.972,15.54,15.539v12.127C1845.108,1328.498,1838.137,1335.47,1829.567,1335.47z"/>
				<path style="fill:#91B3FA;" d="M3034.958,1114.532c-2.28,0-4.202-1.763-4.366-4.071c-3.028-42.681-17.821-74.501-43.969-94.576
					c-45.217-34.716-109.737-22.785-110.385-22.657c-2.389,0.454-4.673-1.095-5.131-3.472c-0.459-2.376,1.097-4.676,3.473-5.132
					c2.796-0.539,69.069-12.778,117.38,24.309c28.221,21.667,44.16,55.618,47.372,100.906c0.171,2.414-1.646,4.51-4.061,4.682
					C3035.166,1114.529,3035.062,1114.532,3034.958,1114.532z"/>
			</g>
		</g>
	</g>
</g>
</svg>
